<mxfile host="app.diagrams.net" agent="Mozilla/5.0 (Windows NT 10.0; Win64; x64) AppleWebKit/537.36 (KHTML, like Gecko) Chrome/137.0.0.0 Safari/537.36" version="27.1.4">
  <diagram name="Page-1" id="LIh5663QERPAA1kgl12G">
    <mxGraphModel grid="1" page="1" gridSize="10" guides="1" tooltips="1" connect="1" arrows="1" fold="1" pageScale="1" pageWidth="850" pageHeight="1100" math="0" shadow="0">
      <root>
        <mxCell id="0" />
        <object label="Background" id="1">
          <mxCell parent="0" />
        </object>
        <mxCell id="7RQQDNPXUSLtgoR5Z-SH-91" value="" style="group;movable=1;resizable=1;rotatable=1;deletable=1;editable=1;locked=0;connectable=1;" connectable="0" vertex="1" parent="1">
          <mxGeometry x="40" y="-420" width="750" height="420" as="geometry" />
        </mxCell>
        <mxCell id="7RQQDNPXUSLtgoR5Z-SH-137" value="" style="group;movable=1;resizable=1;rotatable=1;deletable=1;editable=1;locked=0;connectable=1;" connectable="0" vertex="1" parent="7RQQDNPXUSLtgoR5Z-SH-91">
          <mxGeometry x="-20" y="-10" width="700" height="420" as="geometry" />
        </mxCell>
        <mxCell id="7RQQDNPXUSLtgoR5Z-SH-90" value="" style="rounded=0;whiteSpace=wrap;html=1;fillStyle=solid;fillColor=light-dark(#E6D0DE,#E6D0DE);container=0;movable=0;resizable=0;rotatable=0;deletable=0;editable=0;locked=1;connectable=0;" vertex="1" parent="7RQQDNPXUSLtgoR5Z-SH-137">
          <mxGeometry width="700" height="420" as="geometry" />
        </mxCell>
        <mxCell id="GvPYJPXKryvJ9Srk0txK-2" value="&lt;font style=&quot;font-size: 14px;&quot;&gt;TSAgent High Level Setup&lt;/font&gt;" style="rounded=0;whiteSpace=wrap;html=1;fillStyle=solid;fillColor=light-dark(#ff99cc, #FF99CC);movable=0;resizable=0;rotatable=0;deletable=0;editable=0;locked=1;connectable=0;" vertex="1" parent="7RQQDNPXUSLtgoR5Z-SH-137">
          <mxGeometry width="206.68421052631587" height="50" as="geometry" />
        </mxCell>
        <mxCell id="7RQQDNPXUSLtgoR5Z-SH-16" value="Images w/Txt" parent="0" />
        <mxCell id="7RQQDNPXUSLtgoR5Z-SH-136" value="" style="group;movable=0;resizable=0;rotatable=0;deletable=0;editable=0;locked=1;connectable=0;" connectable="0" vertex="1" parent="7RQQDNPXUSLtgoR5Z-SH-16">
          <mxGeometry x="80" y="-369.9967287751805" width="570" height="322.0300000000001" as="geometry" />
        </mxCell>
        <mxCell id="7RQQDNPXUSLtgoR5Z-SH-127" style="rounded=0;orthogonalLoop=1;jettySize=auto;html=1;exitX=1;exitY=0.5;exitDx=0;exitDy=0;entryX=0.14;entryY=0.65;entryDx=0;entryDy=0;entryPerimeter=0;" edge="1" parent="7RQQDNPXUSLtgoR5Z-SH-136" source="7RQQDNPXUSLtgoR5Z-SH-120" target="7RQQDNPXUSLtgoR5Z-SH-97">
          <mxGeometry relative="1" as="geometry">
            <mxPoint x="500" y="79.99672877518049" as="targetPoint" />
          </mxGeometry>
        </mxCell>
        <mxCell id="7RQQDNPXUSLtgoR5Z-SH-128" style="rounded=0;orthogonalLoop=1;jettySize=auto;html=1;exitX=1;exitY=1;exitDx=0;exitDy=0;entryX=0.14;entryY=0.65;entryDx=0;entryDy=0;entryPerimeter=0;" edge="1" parent="7RQQDNPXUSLtgoR5Z-SH-136" source="7RQQDNPXUSLtgoR5Z-SH-120" target="7RQQDNPXUSLtgoR5Z-SH-102">
          <mxGeometry relative="1" as="geometry">
            <mxPoint x="500" y="169.9967287751805" as="targetPoint" />
          </mxGeometry>
        </mxCell>
        <mxCell id="7RQQDNPXUSLtgoR5Z-SH-120" value="&lt;font style=&quot;font-size: 12px;&quot;&gt;Citrix Team&lt;br&gt;Orchestration Server&lt;/font&gt;" style="image;aspect=fixed;perimeter=ellipsePerimeter;html=1;align=center;shadow=0;dashed=0;spacingTop=3;image=img/lib/active_directory/generic_server.svg;fontSize=10;labelPosition=center;verticalLabelPosition=top;verticalAlign=bottom;container=0;" vertex="1" parent="7RQQDNPXUSLtgoR5Z-SH-136">
          <mxGeometry x="360" y="10" width="22" height="39.27" as="geometry" />
        </mxCell>
        <mxCell id="7RQQDNPXUSLtgoR5Z-SH-121" value="" style="verticalLabelPosition=bottom;html=1;verticalAlign=top;strokeWidth=2;shape=mxgraph.lean_mapping.physical_pull;pointerEvents=1;rotation=34;aspect=fixed;direction=south;flipH=1;container=0;" vertex="1" parent="7RQQDNPXUSLtgoR5Z-SH-136">
          <mxGeometry x="146.07" y="57.5467287751805" width="69" height="69" as="geometry" />
        </mxCell>
        <mxCell id="7RQQDNPXUSLtgoR5Z-SH-122" value="Citrix Servers with TSAgent Installed" style="rounded=0;whiteSpace=wrap;html=1;strokeColor=none;container=0;" vertex="1" parent="7RQQDNPXUSLtgoR5Z-SH-136">
          <mxGeometry x="430" y="100" width="120" height="40" as="geometry" />
        </mxCell>
        <mxCell id="7RQQDNPXUSLtgoR5Z-SH-123" value="Aegon CMDB" style="image;aspect=fixed;perimeter=ellipsePerimeter;html=1;align=center;shadow=0;dashed=0;spacingTop=3;image=img/lib/active_directory/database_server.svg;labelPosition=center;verticalLabelPosition=top;verticalAlign=bottom;container=0;" vertex="1" parent="7RQQDNPXUSLtgoR5Z-SH-136">
          <mxGeometry x="200" width="38" height="46.34" as="geometry" />
        </mxCell>
        <mxCell id="7RQQDNPXUSLtgoR5Z-SH-133" style="edgeStyle=orthogonalEdgeStyle;rounded=0;orthogonalLoop=1;jettySize=auto;html=1;exitX=0.13;exitY=0.77;exitDx=0;exitDy=0;exitPerimeter=0;entryX=-0.051;entryY=0.394;entryDx=0;entryDy=0;entryPerimeter=0;" edge="1" parent="7RQQDNPXUSLtgoR5Z-SH-136" source="7RQQDNPXUSLtgoR5Z-SH-124" target="7RQQDNPXUSLtgoR5Z-SH-108">
          <mxGeometry relative="1" as="geometry">
            <mxPoint x="180" y="289.9967287751805" as="targetPoint" />
            <Array as="points">
              <mxPoint x="21" y="289.9967287751805" />
            </Array>
          </mxGeometry>
        </mxCell>
        <mxCell id="7RQQDNPXUSLtgoR5Z-SH-124" value="&lt;u&gt;NICE&lt;br&gt;&lt;/u&gt;TSAgent Updater&lt;br&gt;Automation" style="ellipse;shape=cloud;whiteSpace=wrap;html=1;aspect=fixed;movable=1;resizable=1;rotatable=1;deletable=1;editable=1;locked=0;connectable=1;container=0;" vertex="1" parent="7RQQDNPXUSLtgoR5Z-SH-136">
          <mxGeometry y="80" width="164.97" height="110" as="geometry" />
        </mxCell>
        <mxCell id="7RQQDNPXUSLtgoR5Z-SH-95" value="" style="image;aspect=fixed;perimeter=ellipsePerimeter;html=1;align=center;shadow=0;dashed=0;spacingTop=3;image=img/lib/active_directory/generic_server.svg;container=0;" vertex="1" parent="7RQQDNPXUSLtgoR5Z-SH-136">
          <mxGeometry x="463.6" y="50" width="22.4" height="40" as="geometry" />
        </mxCell>
        <mxCell id="7RQQDNPXUSLtgoR5Z-SH-96" value="" style="verticalLabelPosition=bottom;html=1;verticalAlign=top;align=center;strokeColor=none;fillColor=#00BEF2;shape=mxgraph.azure.user;aspect=fixed;container=0;" vertex="1" parent="7RQQDNPXUSLtgoR5Z-SH-136">
          <mxGeometry x="463" y="65.70999999999998" width="23" height="24.29" as="geometry" />
        </mxCell>
        <mxCell id="7RQQDNPXUSLtgoR5Z-SH-97" value="" style="verticalLabelPosition=bottom;html=1;verticalAlign=top;align=center;strokeColor=none;fillColor=#00BEF2;shape=mxgraph.azure.user;aspect=fixed;container=0;" vertex="1" parent="7RQQDNPXUSLtgoR5Z-SH-136">
          <mxGeometry x="440" y="65.71000000000004" width="23" height="24.29" as="geometry" />
        </mxCell>
        <mxCell id="7RQQDNPXUSLtgoR5Z-SH-129" style="edgeStyle=orthogonalEdgeStyle;rounded=0;orthogonalLoop=1;jettySize=auto;html=1;exitX=0.84;exitY=0.28;exitDx=0;exitDy=0;exitPerimeter=0;" edge="1" parent="7RQQDNPXUSLtgoR5Z-SH-136" source="7RQQDNPXUSLtgoR5Z-SH-98">
          <mxGeometry relative="1" as="geometry">
            <mxPoint x="400" y="299.9967287751805" as="targetPoint" />
            <Array as="points">
              <mxPoint x="570" y="73" />
              <mxPoint x="570" y="300" />
            </Array>
          </mxGeometry>
        </mxCell>
        <mxCell id="7RQQDNPXUSLtgoR5Z-SH-98" value="" style="verticalLabelPosition=bottom;html=1;verticalAlign=top;align=center;strokeColor=none;fillColor=#00BEF2;shape=mxgraph.azure.user;aspect=fixed;container=0;" vertex="1" parent="7RQQDNPXUSLtgoR5Z-SH-136">
          <mxGeometry x="486" y="65.71000000000004" width="23" height="24.29" as="geometry" />
        </mxCell>
        <mxCell id="7RQQDNPXUSLtgoR5Z-SH-100" value="" style="image;aspect=fixed;perimeter=ellipsePerimeter;html=1;align=center;shadow=0;dashed=0;spacingTop=3;image=img/lib/active_directory/generic_server.svg;container=0;" vertex="1" parent="7RQQDNPXUSLtgoR5Z-SH-136">
          <mxGeometry x="463.6" y="150" width="22.4" height="40" as="geometry" />
        </mxCell>
        <mxCell id="7RQQDNPXUSLtgoR5Z-SH-101" value="" style="verticalLabelPosition=bottom;html=1;verticalAlign=top;align=center;strokeColor=none;fillColor=#00BEF2;shape=mxgraph.azure.user;aspect=fixed;container=0;" vertex="1" parent="7RQQDNPXUSLtgoR5Z-SH-136">
          <mxGeometry x="463" y="165.70999999999998" width="23" height="24.29" as="geometry" />
        </mxCell>
        <mxCell id="7RQQDNPXUSLtgoR5Z-SH-102" value="" style="verticalLabelPosition=bottom;html=1;verticalAlign=top;align=center;strokeColor=none;fillColor=#00BEF2;shape=mxgraph.azure.user;aspect=fixed;container=0;" vertex="1" parent="7RQQDNPXUSLtgoR5Z-SH-136">
          <mxGeometry x="440" y="165.71" width="23" height="24.29" as="geometry" />
        </mxCell>
        <mxCell id="7RQQDNPXUSLtgoR5Z-SH-131" style="edgeStyle=orthogonalEdgeStyle;rounded=0;orthogonalLoop=1;jettySize=auto;html=1;exitX=0.84;exitY=0.28;exitDx=0;exitDy=0;exitPerimeter=0;" edge="1" parent="7RQQDNPXUSLtgoR5Z-SH-136" source="7RQQDNPXUSLtgoR5Z-SH-103">
          <mxGeometry relative="1" as="geometry">
            <mxPoint x="400" y="269.9967287751805" as="targetPoint" />
            <Array as="points">
              <mxPoint x="540" y="173" />
              <mxPoint x="540" y="270" />
            </Array>
          </mxGeometry>
        </mxCell>
        <mxCell id="7RQQDNPXUSLtgoR5Z-SH-103" value="" style="verticalLabelPosition=bottom;html=1;verticalAlign=top;align=center;strokeColor=none;fillColor=#00BEF2;shape=mxgraph.azure.user;aspect=fixed;container=0;" vertex="1" parent="7RQQDNPXUSLtgoR5Z-SH-136">
          <mxGeometry x="486" y="165.71" width="23" height="24.29" as="geometry" />
        </mxCell>
        <mxCell id="7RQQDNPXUSLtgoR5Z-SH-107" value="" style="image;html=1;image=img/lib/clip_art/networking/Firewall_02_128x128.png;aspect=fixed;container=0;" vertex="1" parent="7RQQDNPXUSLtgoR5Z-SH-136">
          <mxGeometry x="190" y="251.57000000000005" width="53.06246913580248" height="53.06246913580248" as="geometry" />
        </mxCell>
        <mxCell id="7RQQDNPXUSLtgoR5Z-SH-108" value="" style="image;html=1;image=img/lib/clip_art/networking/Firewall_02_128x128.png;aspect=fixed;container=0;" vertex="1" parent="7RQQDNPXUSLtgoR5Z-SH-136">
          <mxGeometry x="190" y="268.96753086419756" width="53.06246913580248" height="53.06246913580248" as="geometry" />
        </mxCell>
        <mxCell id="7RQQDNPXUSLtgoR5Z-SH-110" value="" style="image;html=1;image=img/lib/clip_art/networking/Firewall_02_128x128.png;aspect=fixed;container=0;" vertex="1" parent="7RQQDNPXUSLtgoR5Z-SH-136">
          <mxGeometry x="242.28215767634856" y="251.57000000000005" width="53.06246913580248" height="53.06246913580248" as="geometry" />
        </mxCell>
        <mxCell id="7RQQDNPXUSLtgoR5Z-SH-111" value="" style="image;html=1;image=img/lib/clip_art/networking/Firewall_02_128x128.png;aspect=fixed;container=0;" vertex="1" parent="7RQQDNPXUSLtgoR5Z-SH-136">
          <mxGeometry x="242.28215767634856" y="268.96753086419756" width="53.06246913580248" height="53.06246913580248" as="geometry" />
        </mxCell>
        <mxCell id="7RQQDNPXUSLtgoR5Z-SH-113" value="" style="image;html=1;image=img/lib/clip_art/networking/Firewall_02_128x128.png;aspect=fixed;container=0;" vertex="1" parent="7RQQDNPXUSLtgoR5Z-SH-136">
          <mxGeometry x="294.5643153526971" y="251.57000000000005" width="53.06246913580248" height="53.06246913580248" as="geometry" />
        </mxCell>
        <mxCell id="7RQQDNPXUSLtgoR5Z-SH-114" value="" style="image;html=1;image=img/lib/clip_art/networking/Firewall_02_128x128.png;aspect=fixed;container=0;" vertex="1" parent="7RQQDNPXUSLtgoR5Z-SH-136">
          <mxGeometry x="294.5643153526971" y="268.96753086419756" width="53.06246913580248" height="53.06246913580248" as="geometry" />
        </mxCell>
        <mxCell id="7RQQDNPXUSLtgoR5Z-SH-116" value="" style="image;html=1;image=img/lib/clip_art/networking/Firewall_02_128x128.png;aspect=fixed;container=0;" vertex="1" parent="7RQQDNPXUSLtgoR5Z-SH-136">
          <mxGeometry x="346.8464730290457" y="251.57000000000005" width="53.06246913580248" height="53.06246913580248" as="geometry" />
        </mxCell>
        <mxCell id="7RQQDNPXUSLtgoR5Z-SH-117" value="" style="image;html=1;image=img/lib/clip_art/networking/Firewall_02_128x128.png;aspect=fixed;container=0;" vertex="1" parent="7RQQDNPXUSLtgoR5Z-SH-136">
          <mxGeometry x="346.8464730290457" y="268.96753086419756" width="53.06246913580248" height="53.06246913580248" as="geometry" />
        </mxCell>
        <mxCell id="7RQQDNPXUSLtgoR5Z-SH-18" value="Comments" parent="0" />
        <mxCell id="7RQQDNPXUSLtgoR5Z-SH-87" value="" style="group;movable=0;resizable=0;rotatable=0;deletable=0;editable=0;locked=1;connectable=0;" connectable="0" vertex="1" parent="7RQQDNPXUSLtgoR5Z-SH-18">
          <mxGeometry x="500" y="-170" width="200" height="60" as="geometry" />
        </mxCell>
        <mxCell id="7RQQDNPXUSLtgoR5Z-SH-82" value="&lt;font style=&quot;font-size: 9px;&quot;&gt;&lt;b&gt;Communicates via TSAgent to Firewall over Port TCP 5009 and provides list of UserID to IPAddress+Port Mapping&lt;/b&gt;&lt;/font&gt;" style="rounded=0;whiteSpace=wrap;html=1;fillColor=light-dark(#ffb366, #FFB366);movable=1;resizable=1;rotatable=1;deletable=1;editable=1;locked=0;connectable=1;" vertex="1" parent="7RQQDNPXUSLtgoR5Z-SH-87">
          <mxGeometry x="20" y="10" width="180" height="50" as="geometry" />
        </mxCell>
        <mxCell id="7RQQDNPXUSLtgoR5Z-SH-83" value="2" style="ellipse;whiteSpace=wrap;html=1;aspect=fixed;fillColor=light-dark(#ff3333, #FF3333);container=0;movable=1;resizable=1;rotatable=1;deletable=1;editable=1;locked=0;connectable=1;" vertex="1" parent="7RQQDNPXUSLtgoR5Z-SH-87">
          <mxGeometry width="24" height="24" as="geometry" />
        </mxCell>
        <mxCell id="7RQQDNPXUSLtgoR5Z-SH-134" value="" style="group;movable=0;resizable=0;rotatable=0;deletable=0;editable=0;locked=1;connectable=0;" connectable="0" vertex="1" parent="7RQQDNPXUSLtgoR5Z-SH-18">
          <mxGeometry x="40" y="-170" width="227" height="60" as="geometry" />
        </mxCell>
        <mxCell id="7RQQDNPXUSLtgoR5Z-SH-19" value="&lt;font style=&quot;font-size: 9px;&quot;&gt;&lt;b&gt;TSAgent Updater automation obtains Citrix Server list from CMDB and registers them with Firewall&#39;s&lt;/b&gt;&lt;/font&gt;" style="rounded=0;whiteSpace=wrap;html=1;fillColor=light-dark(#99ff99, #99FF99);movable=1;resizable=1;rotatable=1;deletable=1;editable=1;locked=0;connectable=1;" vertex="1" parent="7RQQDNPXUSLtgoR5Z-SH-134">
          <mxGeometry x="20" y="10" width="207" height="50" as="geometry" />
        </mxCell>
        <mxCell id="7RQQDNPXUSLtgoR5Z-SH-67" value="1" style="ellipse;whiteSpace=wrap;html=1;aspect=fixed;fillColor=light-dark(#ff3333, #FF3333);container=0;movable=1;resizable=1;rotatable=1;deletable=1;editable=1;locked=0;connectable=1;" vertex="1" parent="7RQQDNPXUSLtgoR5Z-SH-134">
          <mxGeometry width="24" height="24" as="geometry" />
        </mxCell>
      </root>
    </mxGraphModel>
  </diagram>
</mxfile>
